<?xml version="1.0" standalone="no"?>
<!DOCTYPE svg PUBLIC "-//W3C//DTD SVG 20010904//EN"
 "http://www.w3.org/TR/2001/REC-SVG-20010904/DTD/svg10.dtd">
<svg version="1.0" xmlns="http://www.w3.org/2000/svg"
 width="137.000000pt" height="65.000000pt" viewBox="0 0 137.000000 65.000000"
 preserveAspectRatio="xMidYMid meet">
<metadata>
Created by potrace 1.16, written by Peter Selinger 2001-2019
</metadata>
<g transform="translate(0.000000,65.000000) scale(0.100000,-0.100000)"
fill="#000000" stroke="none">
<path d="M1076 548 c-9 -12 -16 -28 -16 -35 0 -6 -10 -13 -22 -15 -17 -2 -53
-46 -53 -65 0 -1 -12 -4 -28 -8 -34 -9 -36 8 -2 23 34 16 34 52 0 52 -17 0
-29 -9 -40 -30 -31 -60 -9 -98 39 -66 21 13 25 13 30 1 9 -25 106 -10 106 16
0 6 -5 7 -11 3 -8 -5 -9 6 -4 37 11 67 22 89 45 89 11 0 20 5 20 10 0 19 -49
10 -64 -12z"/>
<path d="M737 538 c-27 -10 -45 -47 -32 -67 12 -21 27 -11 21 14 -5 18 -1 27
13 35 31 16 34 13 28 -26 -8 -48 -33 -84 -57 -84 -11 0 -20 -4 -20 -10 0 -5
11 -10 25 -10 21 0 30 9 45 43 l20 42 0 -37 c0 -52 13 -54 39 -7 25 44 37 47
21 5 -15 -41 -13 -46 20 -46 17 0 30 5 30 10 0 6 -6 10 -14 10 -12 0 -12 11 4
67 10 37 17 70 14 72 -6 7 -45 -31 -65 -64 l-19 -30 0 32 c0 63 -14 73 -73 51z"/>
<path d="M424 515 c-4 -8 -12 -15 -20 -15 -8 0 -14 -4 -14 -10 0 -5 4 -10 8
-10 5 0 7 -13 4 -28 -2 -19 -9 -28 -23 -28 -12 0 -18 6 -15 16 3 8 7 25 11 37
5 20 3 22 -37 21 -24 0 -49 -5 -55 -10 -9 -7 -13 -7 -13 1 0 6 -11 11 -24 11
-31 0 -56 -34 -56 -77 0 -35 15 -42 51 -23 29 16 23 31 -8 24 l-28 -6 30 25
c17 14 37 28 46 30 14 4 15 -1 6 -35 -5 -21 -7 -41 -4 -44 10 -10 27 6 27 25
0 11 9 29 19 42 l20 24 -11 -43 c-12 -49 -6 -62 23 -44 16 10 24 10 35 1 11
-9 19 -8 39 5 30 20 32 30 5 23 -22 -6 -23 -3 -11 28 5 12 18 20 33 20 24 1
25 -1 17 -29 -12 -42 -11 -58 3 -54 7 3 16 19 20 36 5 18 20 39 33 48 14 9 25
20 25 26 0 10 -70 0 -84 -12 -11 -11 -35 11 -29 27 3 7 0 13 -6 13 -7 0 -14
-7 -17 -15z"/>
<path d="M605 226 c-19 -21 -35 -43 -35 -49 0 -25 -20 19 -20 46 0 23 -4 27
-28 27 -15 0 -38 -7 -50 -16 -26 -18 -30 -64 -6 -64 11 0 14 5 10 16 -7 19 10
44 31 44 31 0 -9 -108 -43 -116 -29 -7 -32 -24 -5 -24 23 0 60 44 63 74 0 11
4 -1 7 -29 l6 -50 33 50 c19 28 31 42 28 32 -18 -57 -18 -64 6 -71 32 -8 38
-8 38 4 0 6 -7 10 -15 10 -16 0 -15 10 11 100 7 24 11 46 9 49 -3 2 -21 -13
-40 -33z"/>
</g>
</svg>
